<?xml version="1.0" encoding="utf-8" ?>
<!DOCTYPE svg PUBLIC "-//W3C//DTD SVG 1.1//EN" "http://www.w3.org/Graphics/SVG/1.1/DTD/svg11.dtd">
<svg height="242" version="1.1" width="495" xmlns="http://www.w3.org/2000/svg">
<ellipse cx="22" cy="128" fill="#000000" rx="8.0" ry="8.0" stroke="#000000" stroke-width="1"/>
<rect fill="#00ff" height="44" rx="16" ry="16" stroke="#00ff" stroke-width="1" width="70" x="134" y="104"/>
<rect fill="#ffffff" height="44" rx="16" ry="16" stroke="#000000" stroke-width="1" width="70" x="134" y="104"/>
<rect fill="#ffffff" height="42" rx="16" ry="16" stroke="#ffffff" stroke-width="1" width="68" x="135" y="105"/>
<text font-family="Dialog" font-size="12" x="146" y="117">
Waiting</text>
<line fill="#000000" stroke="#000000" stroke-width="1" x1="134" x2="203" y1="127" y2="127"/>
<polyline fill="none" points="29,127 134,127" stroke="#333399" stroke-width="1"/>
<line fill="#333399" stroke="#333399" stroke-width="1" x1="122" x2="134" y1="134" y2="127"/>
<line fill="#333399" stroke="#333399" stroke-width="1" x1="122" x2="134" y1="120" y2="127"/>
<rect fill="#00ff" height="44" rx="16" ry="16" stroke="#00ff" stroke-width="1" width="112" x="294" y="184"/>
<rect fill="#ffffff" height="44" rx="16" ry="16" stroke="#000000" stroke-width="1" width="112" x="294" y="184"/>
<rect fill="#ffffff" height="42" rx="16" ry="16" stroke="#ffffff" stroke-width="1" width="110" x="295" y="185"/>
<text font-family="Dialog" font-size="12" x="323" y="197">
Refusing</text>
<line fill="#000000" stroke="#000000" stroke-width="1" x1="294" x2="405" y1="207" y2="207"/>
<polyline fill="none" points="203,147 294,184" stroke="#333399" stroke-width="1"/>
<line fill="#333399" stroke="#333399" stroke-width="1" x1="280" x2="294" y1="185" y2="184"/>
<line fill="#333399" stroke="#333399" stroke-width="1" x1="285" x2="294" y1="172" y2="184"/>
<text font-family="Dialog" font-size="12" x="251" y="161">
refuse(p : Person)</text>
<polyline fill="none" points="294,216 158,216 158,147" stroke="#333399" stroke-width="1"/>
<line fill="#333399" stroke="#333399" stroke-width="1" x1="165" x2="158" y1="159" y2="147"/>
<line fill="#333399" stroke="#333399" stroke-width="1" x1="151" x2="158" y1="159" y2="147"/>
<text font-family="Dialog" font-size="12" x="190" y="210">
off_red()</text>
<rect fill="#00ff" height="44" rx="16" ry="16" stroke="#00ff" stroke-width="1" width="113" x="294" y="16"/>
<rect fill="#ffffff" height="44" rx="16" ry="16" stroke="#000000" stroke-width="1" width="113" x="294" y="16"/>
<rect fill="#ffffff" height="42" rx="16" ry="16" stroke="#ffffff" stroke-width="1" width="111" x="295" y="17"/>
<text font-family="Dialog" font-size="12" x="319" y="29">
Accepting</text>
<line fill="#000000" stroke="#000000" stroke-width="1" x1="294" x2="406" y1="39" y2="39"/>
<polyline fill="none" points="406,59 406,128 203,128" stroke="#333399" stroke-width="1"/>
<line fill="#333399" stroke="#333399" stroke-width="1" x1="215" x2="203" y1="121" y2="128"/>
<line fill="#333399" stroke="#333399" stroke-width="1" x1="215" x2="203" y1="135" y2="128"/>
<text font-family="Dialog" font-size="12" x="408" y="95">
pass_thru()</text>
<polyline fill="none" points="294,32 158,32 158,104" stroke="#333399" stroke-width="1"/>
<line fill="#333399" stroke="#333399" stroke-width="1" x1="151" x2="158" y1="92" y2="104"/>
<line fill="#333399" stroke="#333399" stroke-width="1" x1="165" x2="158" y1="92" y2="104"/>
<text font-family="Dialog" font-size="12" x="194" y="27">
off_grn()</text>
<polyline fill="none" points="203,104 294,59" stroke="#333399" stroke-width="1"/>
<line fill="#333399" stroke="#333399" stroke-width="1" x1="286" x2="294" y1="70" y2="59"/>
<line fill="#333399" stroke="#333399" stroke-width="1" x1="280" x2="294" y1="58" y2="59"/>
<text font-family="Dialog" font-size="12" x="250" y="100">
accept(p : Person)</text>
</svg>