<?xml version="1.0" encoding="utf-8" ?>
<!DOCTYPE svg PUBLIC "-//W3C//DTD SVG 1.1//EN" "http://www.w3.org/Graphics/SVG/1.1/DTD/svg11.dtd">
<svg height="243" version="1.1" width="495" xmlns="http://www.w3.org/2000/svg">
<ellipse cx="22" cy="129" fill="#000000" rx="8.0" ry="8.0" stroke="#000000" stroke-width="1"/>
<rect fill="#00ff" height="44" rx="16" ry="16" stroke="#00ff" stroke-width="1" width="70" x="134" y="105"/>
<rect fill="#ffffff" height="44" rx="16" ry="16" stroke="#000000" stroke-width="1" width="70" x="134" y="105"/>
<rect fill="#ffffff" height="42" rx="16" ry="16" stroke="#ffffff" stroke-width="1" width="68" x="135" y="106"/>
<text font-family="Dialog" font-size="12" x="146" y="118">
Waiting</text>
<line fill="#000000" stroke="#000000" stroke-width="1" x1="134" x2="203" y1="128" y2="128"/>
<polyline fill="none" points="29,128 134,128" stroke="#333399" stroke-width="1"/>
<line fill="#333399" stroke="#333399" stroke-width="1" x1="122" x2="134" y1="135" y2="128"/>
<line fill="#333399" stroke="#333399" stroke-width="1" x1="122" x2="134" y1="121" y2="128"/>
<rect fill="#00ff" height="44" rx="16" ry="16" stroke="#00ff" stroke-width="1" width="112" x="294" y="185"/>
<rect fill="#ffffff" height="44" rx="16" ry="16" stroke="#000000" stroke-width="1" width="112" x="294" y="185"/>
<rect fill="#ffffff" height="42" rx="16" ry="16" stroke="#ffffff" stroke-width="1" width="110" x="295" y="186"/>
<text font-family="Dialog" font-size="12" x="323" y="198">
Refusing</text>
<line fill="#000000" stroke="#000000" stroke-width="1" x1="294" x2="405" y1="208" y2="208"/>
<polyline fill="none" points="203,148 294,185" stroke="#333399" stroke-width="1"/>
<line fill="#333399" stroke="#333399" stroke-width="1" x1="280" x2="294" y1="186" y2="185"/>
<line fill="#333399" stroke="#333399" stroke-width="1" x1="285" x2="294" y1="173" y2="185"/>
<text font-family="Dialog" font-size="12" x="260" y="163">
refuse()</text>
<polyline fill="none" points="294,217 158,217 158,148" stroke="#333399" stroke-width="1"/>
<line fill="#333399" stroke="#333399" stroke-width="1" x1="165" x2="158" y1="160" y2="148"/>
<line fill="#333399" stroke="#333399" stroke-width="1" x1="151" x2="158" y1="160" y2="148"/>
<text font-family="Dialog" font-size="12" x="196" y="208">
off_red()</text>
<rect fill="#00ff" height="44" rx="16" ry="16" stroke="#00ff" stroke-width="1" width="113" x="294" y="17"/>
<rect fill="#ffffff" height="44" rx="16" ry="16" stroke="#000000" stroke-width="1" width="113" x="294" y="17"/>
<rect fill="#ffffff" height="42" rx="16" ry="16" stroke="#ffffff" stroke-width="1" width="111" x="295" y="18"/>
<text font-family="Dialog" font-size="12" x="319" y="30">
Accepting</text>
<line fill="#000000" stroke="#000000" stroke-width="1" x1="294" x2="406" y1="40" y2="40"/>
<polyline fill="none" points="406,60 406,129 203,129" stroke="#333399" stroke-width="1"/>
<line fill="#333399" stroke="#333399" stroke-width="1" x1="215" x2="203" y1="122" y2="129"/>
<line fill="#333399" stroke="#333399" stroke-width="1" x1="215" x2="203" y1="136" y2="129"/>
<text font-family="Dialog" font-size="12" x="408" y="96">
pass_thru()</text>
<polyline fill="none" points="294,33 158,33 158,105" stroke="#333399" stroke-width="1"/>
<line fill="#333399" stroke="#333399" stroke-width="1" x1="151" x2="158" y1="93" y2="105"/>
<line fill="#333399" stroke="#333399" stroke-width="1" x1="165" x2="158" y1="93" y2="105"/>
<text font-family="Dialog" font-size="12" x="192" y="27">
off_grn()</text>
<polyline fill="none" points="203,105 294,60" stroke="#333399" stroke-width="1"/>
<line fill="#333399" stroke="#333399" stroke-width="1" x1="286" x2="294" y1="71" y2="60"/>
<line fill="#333399" stroke="#333399" stroke-width="1" x1="280" x2="294" y1="59" y2="60"/>
<text font-family="Dialog" font-size="12" x="260" y="97">
accept()</text>
</svg>
