<?xml version="1.0" encoding="UTF-8" standalone="no"?>
<!-- Created with Inkscape (http://www.inkscape.org/) -->

<svg
   xmlns:dc="http://purl.org/dc/elements/1.1/"
   xmlns:cc="http://creativecommons.org/ns#"
   xmlns:rdf="http://www.w3.org/1999/02/22-rdf-syntax-ns#"
   xmlns:svg="http://www.w3.org/2000/svg"
   xmlns="http://www.w3.org/2000/svg"
   xmlns:xlink="http://www.w3.org/1999/xlink"
   xmlns:sodipodi="http://sodipodi.sourceforge.net/DTD/sodipodi-0.dtd"
   xmlns:inkscape="http://www.inkscape.org/namespaces/inkscape"
   width="140mm"
   height="140mm"
   viewBox="0 0 496.063 496.06299"
   id="svg2"
   version="1.1"
   inkscape:version="0.91 r13725"
   sodipodi:docname="logo.svg"
   inkscape:export-filename="/home/jannis/Quellcode/chimpanc/assets/logo.png"
   inkscape:export-xdpi="46.445713"
   inkscape:export-ydpi="46.445713">
  <defs
     id="defs4">
    <inkscape:path-effect
       effect="skeletal"
       id="path-effect4235"
       is_visible="true"
       pattern="M 26.512524,25.375574 C 16.881974,22.961534 -3.0792367,13.388673 -8.9205467,7.6590429 c 9.05863012,5.4043501 23.9943207,-0.16809 35.4330707,0 z"
       copytype="repeated"
       prop_scale="1"
       scale_y_rel="false"
       spacing="0"
       normal_offset="-10"
       tang_offset="0"
       prop_units="false"
       vertical_pattern="true"
       fuse_tolerance="0" />
    <inkscape:path-effect
       effect="skeletal"
       id="path-effect4202"
       is_visible="true"
       pattern="M 24.10714,0 C 14.47659,2.41404 5.84131,5.69894 0,11.42857 9.05863,6.02422 21.59697,8.91809 33.03572,8.75 Z"
       copytype="repeated"
       prop_scale="1"
       scale_y_rel="false"
       spacing="0"
       normal_offset="0"
       tang_offset="0"
       prop_units="false"
       vertical_pattern="true"
       fuse_tolerance="0" />
  </defs>
  <sodipodi:namedview
     id="base"
     pagecolor="#ffffff"
     bordercolor="#666666"
     borderopacity="1.0"
     inkscape:pageopacity="0.0"
     inkscape:pageshadow="2"
     inkscape:zoom="0.98994949"
     inkscape:cx="158.81824"
     inkscape:cy="321.88849"
     inkscape:document-units="mm"
     inkscape:current-layer="layer1"
     showgrid="true"
     inkscape:snap-global="true"
     inkscape:snap-smooth-nodes="true"
     inkscape:object-nodes="true"
     fit-margin-top="5"
     fit-margin-left="5"
     fit-margin-right="5"
     fit-margin-bottom="5"
     inkscape:window-width="1920"
     inkscape:window-height="1030"
     inkscape:window-x="0"
     inkscape:window-y="0"
     inkscape:window-maximized="1">
    <inkscape:grid
       type="xygrid"
       id="grid4147"
       units="mm"
       spacingx="3.5433071"
       spacingy="3.5433072"
       empspacing="10"
       originx="0"
       originy="0" />
  </sodipodi:namedview>
  <metadata
     id="metadata7">
    <rdf:RDF>
      <cc:Work
         rdf:about="">
        <dc:format>image/svg+xml</dc:format>
        <dc:type
           rdf:resource="http://purl.org/dc/dcmitype/StillImage" />
        <dc:title />
      </cc:Work>
    </rdf:RDF>
  </metadata>
  <g
     inkscape:label="Ebene 1"
     inkscape:groupmode="layer"
     id="layer1"
     transform="translate(-132.81174,-556.8679)">
    <path
       style="fill:#000000;fill-rule:evenodd;stroke:none;stroke-width:1px;stroke-linecap:butt;stroke-linejoin:miter;stroke-opacity:1"
       d="m 380.84323,567.4978 c -21.25984,0 -68.33521,13.94827 -91.90664,36.09112 -23.57143,22.14286 -45.30019,91.28937 -64.28571,101.42857 -19.23505,10.27246 -60.71428,20.00001 -60.71428,20.00001 0,0 9.28571,166.42857 52.14285,213.57142 42.85714,47.14286 125.3743,93.08208 164.76378,93.08208 38.97638,0 90.23622,-244.51065 90.23622,-244.51065 0,0 -68.97638,-219.66255 -90.23622,-219.66255 z"
       id="path4163"
       inkscape:connector-curvature="0"
       sodipodi:nodetypes="zsscsscz" />
    <use
       x="0"
       y="0"
       xlink:href="#path4163"
       id="use4177"
       transform="matrix(-1,0,0,1,761.68646,4.682813e-6)"
       width="100%"
       height="100%" />
    <use
       x="0"
       y="0"
       xlink:href="#path4151"
       id="use4171"
       transform="matrix(-1,0,0,1,761.68645,3.317187e-6)"
       width="100%"
       height="100%" />
    <path
       style="fill:#ffb380;fill-opacity:1;fill-rule:evenodd;stroke:none;stroke-width:1px;stroke-linecap:butt;stroke-linejoin:miter;stroke-opacity:1"
       d="m 380.84323,691.51355 c -28.34646,0 -26.48482,-9.28571 -59.34196,-7.85714 -32.85714,1.42857 -56.42857,22.14286 -59.28571,32.85714 -2.85715,10.71429 -7.85715,42.14286 3.57142,65.71429 11.42858,23.57143 25,35.71428 22.85715,60 -2.14286,24.28571 -2.14286,46.42857 8.57143,65.71428 10.71428,19.28572 29.28571,62.85715 45.71428,69.28572 16.42857,6.42857 23.55642,11.92351 37.91339,11.92351 14.17323,0 64.94375,-169.78066 64.94375,-169.78066 0,0 -36.5973,-127.85714 -64.94375,-127.85714 z"
       id="path4151"
       inkscape:connector-curvature="0"
       sodipodi:nodetypes="zssssssscz" />
    <path
       style="fill:#000000;fill-rule:evenodd;stroke:none;stroke-width:1px;stroke-linecap:butt;stroke-linejoin:miter;stroke-opacity:1"
       d="m 372.59097,831.49808 c 9.51223,2.12655 -0.79727,21.9161 -9.46428,19.46429 -8.66701,-2.45181 -11.63893,-7.77374 -13.03572,-14.10715 -1.39679,-6.33341 3.63168,-15.57781 8.03572,-20.17857 4.40404,-4.60076 4.95204,12.69488 14.46428,14.82143 z"
       id="path4153"
       inkscape:connector-curvature="0"
       sodipodi:nodetypes="zzzzz" />
    <path
       style="fill:#000000;fill-rule:evenodd;stroke:none;stroke-width:1px;stroke-linecap:butt;stroke-linejoin:miter;stroke-opacity:1"
       d="m 345.41016,758.83639 c 0,0 -8.33375,-28.03173 -24.74873,-28.03173 -16.41498,0 -27.27412,17.93021 -27.27412,17.93021 0,0 8.83883,18.94036 25.00127,19.1929 16.16244,0.25254 27.02158,-9.09138 27.02158,-9.09138 z"
       id="path4161"
       inkscape:connector-curvature="0" />
    <circle
       style="opacity:1;fill:#ffb380;fill-opacity:1;stroke:none;stroke-width:0.88599998;stroke-linecap:round;stroke-linejoin:round;stroke-miterlimit:4;stroke-dasharray:0.886, 1.77200000000000002;stroke-dashoffset:0;stroke-opacity:1"
       id="path4159"
       cx="320.60699"
       cy="750.01306"
       r="15.909903" />
    <use
       x="0"
       y="0"
       xlink:href="#path4153"
       id="use4169"
       transform="matrix(-1,0,0,1,761.68645,-3.1718698e-7)"
       width="100%"
       height="100%" />
    <use
       x="0"
       y="0"
       xlink:href="#path4161"
       id="use4173"
       transform="matrix(-1,0,0,1,761.68646,-1.317187e-6)"
       width="100%"
       height="100%" />
    <use
       x="0"
       y="0"
       xlink:href="#path4159"
       id="use4175"
       transform="matrix(-1,0,0,1,761.68646,2.2682813e-5)"
       width="100%"
       height="100%" />
    <use
       x="0"
       y="0"
       xlink:href="#path4233"
       id="use4265"
       transform="matrix(-1,0,0,1,761.68646,3.1718698e-7)"
       width="100%"
       height="100%"
       style="fill:#000000" />
    <use
       x="0"
       y="0"
       xlink:href="#path4165"
       id="use4179"
       transform="matrix(-1,0,0,1,761.68646,-1.682813e-6)"
       width="100%"
       height="100%" />
    <ellipse
       style="opacity:1;fill:#ffffff;fill-opacity:1;stroke:none;stroke-width:0.88599998;stroke-linecap:round;stroke-linejoin:round;stroke-miterlimit:4;stroke-dasharray:0.886, 1.772;stroke-dashoffset:0;stroke-opacity:1"
       id="path4181"
       cx="-292.33652"
       cy="754.29761"
       rx="1.7716535"
       ry="3.5433071"
       transform="matrix(0.70710678,-0.70710678,0.70710678,0.70710678,0,0)" />
    <ellipse
       transform="matrix(0.70710678,-0.70710678,0.70710678,0.70710678,0,0)"
       ry="3.5433071"
       rx="1.7716535"
       cy="839.4845"
       cx="-207.14963"
       id="ellipse4183"
       style="opacity:1;fill:#ffffff;fill-opacity:1;stroke:none;stroke-width:0.88599998;stroke-linecap:round;stroke-linejoin:round;stroke-miterlimit:4;stroke-dasharray:0.886, 1.772;stroke-dashoffset:0;stroke-opacity:1" />
    <path
       style="fill:#000000;fill-rule:evenodd;stroke:none;stroke-width:1px;stroke-linecap:butt;stroke-linejoin:miter;stroke-opacity:1"
       d="m 350.03366,1006.3192 c 0.5112,5.0406 2.4661,12.5067 5.66798,19.8109 3.20088,7.3018 7.34576,13.6949 10.96379,16.7395 -3.27349,-4.5165 -2.97671,-10.6231 -2.13121,-16.8455 0.90129,-6.6331 2.21594,-12.5082 2.13226,-18.5875 -5.54346,0.012 -11.0975,-0.3793 -16.63282,-1.1174 z m -16.52394,-3.2005 c -0.0573,5.0645 1.03755,12.7492 3.29107,20.3727 2.25466,7.6273 5.47787,14.4773 8.57492,17.9197 -2.58031,-4.8721 -1.51688,-10.8838 0.12104,-16.9516 1.73455,-6.4258 3.82323,-12.1482 4.5334,-18.1408 -5.53531,-0.7382 -11.05189,-1.8235 -16.52043,-3.2 z m -16.23567,-4.9488 c -0.0124,0.1152 -0.0244,0.23206 -0.0359,0.35053 -0.49631,5.09807 -0.12829,12.80947 1.28545,20.52037 1.41395,7.7121 3.7719,14.7726 6.34474,18.477 -1.9437,-5.1313 -0.23191,-10.99 2.07472,-16.8536 2.42632,-6.1678 5.18204,-11.7002 6.56322,-17.5464 -5.44147,-1.3698 -10.83538,-3.028 -16.15286,-4.91955 0,-10e-6 -0.0793,-0.0284 -0.0793,-0.0284 z m -15.80358,-6.43408 c -0.95439,4.95315 -1.26971,12.73498 -0.59339,20.60298 0.6759,7.863 2.30634,15.233 4.44221,19.1863 -1.36025,-5.283 0.87732,-10.9293 3.73015,-16.5472 2.97776,-5.8638 6.29014,-11.1699 8.22121,-16.80921 -5.3461,-1.9113 -10.61369,-4.06631 -15.80018,-6.43287 z m -15.31676,-7.70388 c -1.31276,4.8652 -2.20921,12.62738 -2.1685,20.50726 0.0407,7.8786 1.02769,15.3431 2.78493,19.4254 -0.88003,-5.3545 1.80411,-10.7965 5.10948,-16.1645 3.43612,-5.5802 7.20192,-10.63116 9.58756,-16.06578 -5.18646,-2.36665 -10.29181,-4.94484 -15.31347,-7.70238 z m -14.81417,-8.78138 c -0.4107,1.20853 -0.81225,2.62503 -1.19013,4.19594 -2.67353,11.11391 -3.65812,27.9471 -1.05531,35.6568 -0.4461,-5.3923 2.61776,-10.626 6.30713,-15.74569 3.81954,-5.30032 7.97705,-10.10183 10.74929,-15.32742 -4.66309,-2.56073 -9.25401,-5.27612 -13.77069,-8.12039 -0.34723,-0.219 -0.694,-0.43874 -1.04029,-0.65924 z m -14.26581,-9.7012 c -1.90557,4.66264 -3.76311,12.25377 -4.77008,20.0541 -1.00453,7.78145 -1.09399,15.31164 0.002,19.53394 -0.0623,-5.39407 3.31274,-10.41318 7.32173,-15.2911 4.13144,-5.02688 8.617,-9.58457 11.70907,-14.59769 -4.85015,-3.08831 -9.60729,-6.32356 -14.26273,-9.69925 z m -13.65535,-10.54415 c -2.18338,4.53937 -4.49502,12.00418 -5.97073,19.7299 -1.47204,7.70651 -2.01612,15.21813 -1.17775,19.49826 0.26407,-5.38787 3.93563,-10.19413 8.23182,-14.82145 4.42699,-4.7682 9.18019,-9.04762 12.56906,-13.8647 -4.6554,-3.37574 -9.20909,-6.89192 -13.6524,-10.54201 z m -12.96824,-11.33879 c -2.76799,4.91011 -5.80305,13.21581 -7.74825,21.68552 -1.55669,6.76926 -2.29481,13.17787 -1.77904,17.03021 0.58844,-5.36241 4.54309,-9.93828 9.11053,-14.298 4.70655,-4.4925 9.70894,-8.47726 13.38218,-13.08126 -2.26211,-1.85833 -4.4956,-3.75137 -6.69934,-5.67826 -2.12382,-1.85787 -4.21492,-3.74231 -6.26608,-5.65821 z m -11.92849,-12.10237 c -3.223,4.56848 -6.60418,11.85722 -9.18761,20.06858 -2.18066,7.00283 -3.3977,13.82385 -3.07658,17.92293 0.89127,-5.35774 5.14233,-9.65201 9.99118,-13.70179 5.01858,-4.19154 10.21813,-7.80569 14.19885,-12.18983 -2.22889,-2.08198 -4.41062,-4.2011 -6.53591,-6.36366 -1.86661,-1.90353 -3.67579,-3.80681 -5.38993,-5.73623 z m -9.31509,-13.01928 c -5.71773,5.17789 -13.10293,15.4469 -15.72427,26.74519 -1.03623,3.81547 -1.54471,7.2919 -1.46633,9.78527 1.19661,-5.5126 5.90324,-9.275 11.17246,-12.78471 5.57897,-3.71603 10.83621,-6.62946 15.3309,-10.7291 -1.10423,-1.24298 -2.169,-2.49682 -3.18427,-3.76856 -2.27348,-2.80854 -4.2822,-5.92821 -6.12849,-9.24809 z m -7.06404,-15.12594 c -4.75368,3.33944 -11.36755,9.86177 -16.58094,17.24058 -3.94135,5.53538 -6.6601,11.03745 -7.31027,15.17761 2.20376,-5.16765 7.82895,-7.8783 13.64896,-10.12387 6.35045,-2.45024 11.9511,-4.08453 17.30461,-7.17139 -1.28544,-2.31162 -2.49216,-4.72028 -3.65467,-7.18853 -1.21156,-2.59561 -2.34241,-5.24361 -3.40769,-7.9344 z m -5.59448,-16.15609 c -1.40719,0.83656 -3.02518,1.94302 -4.75728,3.25341 -9.19022,6.95198 -19.86907,18.34665 -22.58473,25.95262 3.02909,-4.54732 8.78761,-6.58643 14.87985,-8.13906 6.40799,-1.63311 12.51524,-2.62799 18.05532,-4.91421 -1.87339,-4.73233 -3.54399,-9.59702 -5.09412,-14.54194 -0.16795,-0.53633 -0.33428,-1.07328 -0.49904,-1.61082 z m -4.58995,-16.67047 c -4.4421,2.32838 -10.79789,6.94734 -16.60327,12.20352 -5.81116,5.26142 -10.77061,10.90185 -12.68656,14.82911 6.55251,-7.84402 23.48259,-7.02142 33.87871,-10.36565 -1.68481,-5.49736 -3.20411,-11.05734 -4.58888,-16.66698 z m -3.78242,-16.96854 c -4.52761,2.13447 -11.10833,6.48913 -17.15605,11.42746 -6.0583,4.94696 -11.32548,10.27987 -13.45301,14.03484 7.0515,-7.45838 23.7483,-5.70482 34.3906,-8.49732 -1.38471,-5.60966 -2.6349,-11.26897 -3.78154,-16.96498 z m -3.16084,-17.18877 c -9.44723,4.10016 -26.81017,16.68793 -31.58674,24.18597 7.46815,-7.13386 23.89622,-4.65096 34.74685,-7.00081 -1.14659,-5.69602 -2.18964,-11.42873 -3.16011,-17.18516 z m -2.67217,-17.30718 c -8.33508,3.35448 -22.97824,13.06745 -29.96128,20.42008 -0.94525,0.99102 -1.72982,1.92064 -2.31462,2.75958 1.99706,-1.75956 4.48065,-2.86483 7.24697,-3.57215 0,0 0,0 0,0 1.82252,-0.46646 3.772,-0.76054 5.79098,-0.95402 0,0 0,0 0,0 7.42347,-0.71233 15.09275,-0.10173 21.9095,-1.34996 -0.12351,-0.73263 -0.24584,-1.46563 -0.36706,-2.199 -0.82787,-5.02396 -1.59503,-10.05935 -2.30449,-15.10453 z m -2.21639,-17.38251 c -9.59065,3.58052 -27.69181,15.28595 -32.87125,22.31306 7.97797,-6.65905 24.01891,-3.21342 35.08713,-4.93422 -0.81289,-5.78092 -1.55001,-11.57469 -2.21588,-17.37884 z m -1.78867,-17.44483 c -9.65549,3.34629 -28.06968,14.61948 -33.41474,21.48018 8.15939,-6.45064 24.08011,-2.59875 35.20299,-4.03903 -0.66584,-5.80416 -1.26042,-11.6187 -1.78825,-17.44115 z M 176.96551,766.828 c -7.43504,2.36486 -20.02819,9.19502 -28.22633,15.4842 -2.45773,1.88388 -4.4517,3.67152 -5.69117,5.18248 8.32576,-6.25056 24.12076,-2.02182 35.28926,-3.19794 -0.13471,-1.48604 -0.26507,-2.97259 -0.39116,-4.45962 -0.36747,-4.33817 -0.6972,-8.67466 -0.9806,-13.00912 z m -0.86743,-17.43296 c -5.2323,1.45495 -12.89328,4.95993 -20.13271,9.14925 -6.25036,3.63007 -11.79955,7.60288 -14.35764,10.59099 8.43545,-6.05452 24.20805,-1.41959 35.35754,-2.31097 -0.20244,-3.0965 -0.38124,-6.19196 -0.53326,-9.28624 -0.1334,-2.7283 -0.2501,-5.44278 -0.33393,-8.14303 z"
       id="path4233"
       inkscape:connector-curvature="0"
       sodipodi:nodetypes="csc"
       inkscape:path-effect="#path-effect4235"
       inkscape:original-d="m 366.67,1015.1531 c -70.86614,0 -139.09808,-59.7311 -157.35855,-82.53726 C 177.99176,893.49957 168.2448,776.55293 168.2448,741.11985" />
    <path
       style="fill:#ffb380;fill-opacity:1;fill-rule:evenodd;stroke:none;stroke-width:1px;stroke-linecap:butt;stroke-linejoin:miter;stroke-opacity:1"
       d="m 232.02433,698.60017 c 0,0 -3.31834,-10.62992 -31.88976,-10.62992 -28.57143,0 -39.39869,18.56553 -38.97638,42.51968 0.49356,27.99559 -6.99585,92.61528 39.06714,71.35543 0,0 -12.47622,-31.69897 -7.08662,-53.1496 5.3896,-21.45064 22.00078,-25.82816 38.88562,-50.09559 z"
       id="path4165"
       inkscape:connector-curvature="0"
       sodipodi:nodetypes="cssczc" />
  </g>
</svg>
