<?xml version="1.0" encoding="utf-8" ?>
<!DOCTYPE svg PUBLIC "-//W3C//DTD SVG 1.1//EN" "http://www.w3.org/Graphics/SVG/1.1/DTD/svg11.dtd">
<svg height="138" version="1.1" width="243" xmlns="http://www.w3.org/2000/svg">
<ellipse cx="22" cy="104" fill="#000000" rx="8.0" ry="8.0" stroke="#000000" stroke-width="1"/>
<rect fill="#00ff" height="44" rx="16" ry="16" stroke="#00ff" stroke-width="1" width="70" x="134" y="80"/>
<rect fill="#ffffff" height="44" rx="16" ry="16" stroke="#000000" stroke-width="1" width="70" x="134" y="80"/>
<rect fill="#ffffff" height="42" rx="16" ry="16" stroke="#ffffff" stroke-width="1" width="68" x="135" y="81"/>
<text font-family="Dialog" font-size="12" x="146" y="93">
Waiting</text>
<line fill="#000000" stroke="#000000" stroke-width="1" x1="134" x2="203" y1="103" y2="103"/>
<polyline fill="none" points="29,103 134,103" stroke="#333399" stroke-width="1"/>
<line fill="#333399" stroke="#333399" stroke-width="1" x1="122" x2="134" y1="110" y2="103"/>
<line fill="#333399" stroke="#333399" stroke-width="1" x1="122" x2="134" y1="96" y2="103"/>
<polyline fill="none" points="134,80 118,64 118,40 222,40 222,56 203,80" stroke="#000000" stroke-width="1"/>
<line fill="#000000" stroke="#000000" stroke-width="1" x1="204" x2="203" y1="66" y2="80"/>
<line fill="#000000" stroke="#000000" stroke-width="1" x1="215" x2="203" y1="74" y2="80"/>
<text font-family="Dialog" font-size="12" x="120" y="27">
enter(p : Person)</text>
</svg>
